<svg width="72" height="72" viewBox="0 0 72 72" fill="none" xmlns="http://www.w3.org/2000/svg">
<mask id="path-1-outside-1_40_2" maskUnits="userSpaceOnUse" x="6.19995" y="13.3999" width="60" height="46" fill="black">
<rect fill="white" x="6.19995" y="13.3999" width="60" height="46"/>
<path d="M57.2168 15.4388C57.8593 15.7195 58.5288 15.951 59.041 16.284C61.3796 17.8062 62.1547 19.6822 62.1142 22.3477C62.106 22.9155 62.0558 23.409 61.9637 23.8283C61.7806 24.6604 61.4189 25.7338 60.8371 26.4054C60.6746 26.5939 60.542 26.7675 60.4394 26.9262C60.0238 27.5694 59.4386 27.9243 58.9129 28.4047C58.5812 28.7076 58.2607 28.942 57.9514 29.108C57.1749 29.5244 56.4009 29.9451 55.6296 30.3703C55.2897 30.5573 54.9246 30.7186 54.5345 30.854C53.5437 31.1976 52.5665 31.5721 51.6027 31.9776C51.3309 32.0919 50.9258 32.2131 50.3874 32.3412C49.1361 32.6383 47.9128 33.1165 46.7244 33.5926C46.2234 33.7925 45.6888 33.8907 45.2395 34.143C44.7609 34.4116 44.2761 34.721 43.7848 35.0711C43.2666 35.4402 42.9839 35.9156 42.9368 36.4972C42.8918 37.053 43.1457 37.4931 43.7332 37.5772C44.4375 37.6776 45.0373 37.4276 45.7101 37.2354C46.0037 37.1517 46.3084 37.0439 46.6244 36.9122C47.4205 36.5809 48.2206 36.2599 49.0249 35.9491C49.6494 35.7074 50.1964 35.5487 50.6659 35.473C51.4709 35.3427 52.3785 35.2826 53.3887 35.2928C54.9583 35.3088 56.3549 35.545 57.5785 36.0015C57.9275 36.1318 58.5494 36.4226 59.4442 36.874C60.3507 37.3315 61.3223 38.0402 61.9963 38.7816C62.5152 39.3527 63.051 39.8725 63.415 40.5353C63.9436 41.4998 64.3345 42.4822 64.5877 43.4825C64.8011 44.3233 64.8 45.1029 64.8 46.1086C64.8 46.9079 64.7502 47.5613 64.6506 48.0687C64.3825 49.4387 63.8347 50.816 63.0072 52.2006C62.8634 52.4409 62.659 52.7029 62.3939 52.9869C61.8694 53.5492 61.4773 54.2109 60.7753 54.6423C60.3518 54.9032 60.0137 55.28 59.5903 55.5126C58.5771 56.0702 57.8024 56.4302 57.2662 56.5925C56.5103 56.8207 55.7779 57.1614 55.0096 57.275C50.1661 57.9913 44.9261 57.3569 39.9354 56.9594C38.3921 56.836 36.906 56.8284 35.3851 56.8284C35.0002 56.8291 34.5947 56.8659 34.1686 56.9386C31.9895 57.3106 29.7942 57.4999 27.5829 57.5065C25.643 57.513 24.1154 57.5021 22.3743 57.1953C22.083 57.1436 21.7981 57.0686 21.5195 56.9703C20.1536 56.4899 18.7732 56.0083 17.5409 55.304C16.8834 54.9284 16.2409 54.5298 15.6134 54.1083C15.1248 53.7796 14.7485 53.3068 14.261 52.941C13.6286 52.4671 13.1838 51.9025 12.6682 51.3369C11.9729 50.5736 11.4057 49.7285 10.8059 48.8942C10.6463 48.6736 10.4898 48.401 10.3363 48.0763C10.0533 47.479 9.6781 46.9494 9.42424 46.3532C9.23441 45.9066 9.00189 45.4797 8.86261 45.021C8.68363 44.4299 8.49156 43.8432 8.28638 43.2608C8.08868 42.6966 7.94004 42.1801 7.84044 41.7113C7.54165 40.3005 7.35894 39.245 7.29229 38.5446C7.19045 37.4804 7.17285 36.1412 7.23949 34.5273C7.30127 33.0303 7.58771 31.5791 7.89885 30.1158C7.98721 29.6987 8.1265 29.2284 8.3167 28.705C8.65256 27.779 8.88507 26.8039 9.3018 25.9391C9.55491 25.415 9.81476 24.8941 10.0813 24.3765C10.3831 23.7912 10.7321 23.2147 11.1282 22.6469C11.618 21.9458 12.0149 21.3969 12.3189 21.0002C12.5357 20.7185 12.8727 20.4542 13.1265 20.1485C13.632 19.5413 14.2565 19.1264 14.7946 18.5935C15.081 18.3096 15.3202 18.0519 15.6763 17.8346C16.3514 17.4218 17.0804 16.9108 17.6858 16.5756C18.8596 15.927 20.102 15.5175 21.3499 15.0305C21.9677 14.788 22.8304 14.6832 23.6223 14.6188C24.8489 14.5205 26.1485 14.313 27.383 14.4397C28.5579 14.5598 29.6418 14.6057 30.7685 14.7815C31.5379 14.9005 32.1366 15.2226 32.9858 15.1779C33.6028 15.1458 33.9151 15.1298 33.9226 15.1298C36.2197 15.1397 38.5426 15.1877 40.8329 14.9999C42.8465 14.8346 44.8617 14.6927 46.8783 14.574C48.2622 14.4932 49.0099 14.4506 49.1215 14.4463C51.0767 14.3691 53.0237 14.4859 54.9624 14.7968C55.7929 14.93 56.5443 15.144 57.2168 15.4388ZM38.5886 50.198C38.6042 50.194 38.6204 50.1932 38.6363 50.1958C38.6522 50.1983 38.6673 50.2042 38.6807 50.2128C38.6941 50.2215 38.7054 50.2328 38.7139 50.2461C38.7224 50.2594 38.728 50.2742 38.7302 50.2897C38.7901 50.6945 38.7792 51.1 38.6976 51.5062C38.5021 52.4889 38.6538 53.3024 38.747 54.2273C38.7976 54.7373 39.1738 55.138 39.6041 55.363C41.1059 56.1481 42.811 56.4604 44.5082 56.8011C45.1732 56.935 45.7932 57.0184 46.3683 57.0511C48.0308 57.145 49.7875 57.1953 51.423 56.8098C52.0116 56.6711 52.6406 56.5663 53.1798 56.409C53.8126 56.2249 54.4337 56.0098 55.0433 55.7637C55.7049 55.4951 56.3126 55.0583 56.9416 54.6805C58.0896 53.9915 58.941 52.846 59.6487 51.7584C60.1991 50.9132 60.4866 49.925 60.7787 48.9674C60.9524 48.3945 61.0632 47.8467 61.1112 47.324C61.2227 46.1068 61.186 44.8933 61.0011 43.6834C60.8843 42.9157 60.5495 42.099 60.3316 41.2997C60.0699 40.3376 59.5375 39.6355 58.9961 38.8187C58.8156 38.5457 58.616 38.3051 58.3974 38.0969C57.7885 37.5182 57.3359 37.0203 56.5069 36.6359C55.5342 36.1838 54.7232 35.8628 53.6594 35.7765C52.6425 35.6943 51.6465 35.7762 50.6716 36.0222C50.3383 36.1059 49.6299 36.3418 48.5463 36.7298C47.1176 37.2398 45.7517 37.943 44.2813 38.1024C42.702 38.2738 42.0303 36.9668 42.5897 35.663C42.7896 35.1978 43.2367 34.7774 43.5714 34.3395C43.6912 34.1816 43.8335 34.0516 43.9983 33.9497C44.4798 33.652 44.9571 33.3477 45.4304 33.0368C46.1706 32.5509 46.9951 32.2266 47.7881 31.8182C48.2622 31.5736 48.6849 31.3665 49.0563 31.1969C50.4304 30.5708 51.7847 29.9055 53.1191 29.2008C53.8212 28.8295 54.4592 28.3403 55.1421 27.8959C55.7487 27.5017 56.2216 26.9426 56.79 26.4829C56.9779 26.3315 57.1296 26.1662 57.2449 25.9871C57.6096 25.4201 57.8837 24.9545 58.0671 24.5905C58.6198 23.4953 58.6827 22.6763 58.6052 21.4763C58.573 20.9834 58.4853 20.5401 58.3423 20.1463C58.0563 19.3579 57.6545 18.6241 57.1371 17.9449C56.836 17.5485 56.3317 17.2832 55.9441 16.9599C54.8703 16.0678 53.2719 15.643 51.9296 15.3078C51.2968 15.1498 50.654 15.0505 50.001 15.0097C47.4182 14.8474 44.8605 15.0505 42.328 15.619C41.4878 15.8083 40.679 16.0813 39.9017 16.438C39.2592 16.7339 38.6156 17.2886 37.945 17.5769C37.6485 17.7043 37.4639 17.9049 37.3912 18.1786C37.3817 18.2147 37.3845 18.253 37.3991 18.2878C37.4822 18.4829 37.5781 18.6481 37.6866 18.7835C38.2584 19.4998 38.9391 20.392 39.0683 21.1814C39.2974 22.5802 39.376 24.0031 39.0244 25.3069C38.9166 25.7087 38.8256 25.9784 38.7515 26.116C38.2715 27.0136 37.76 27.8941 37.2171 28.7574C37.0958 28.9504 36.9172 29.172 36.6813 29.4224C36.2769 29.8505 35.986 30.4412 35.5098 30.7874C34.9425 31.2012 34.5438 31.7396 34.0012 32.1523C33.5953 32.4595 33.2127 32.7922 32.8532 33.1504C32.5792 33.4223 32.2748 33.6068 31.9614 33.8176C31.4761 34.1419 31.0628 34.5896 30.5708 34.9477C30.248 35.1821 30.0002 35.3812 29.8272 35.545C29.2588 36.0812 28.6534 36.5966 28.2119 37.243C27.8412 37.7846 27.3706 38.3634 27.2515 38.9792C27.1325 39.5951 27.1055 40.7428 27.4852 41.3302C27.7222 41.696 28.0547 41.9111 28.1962 42.3479C28.2037 42.371 28.2054 42.3956 28.2012 42.4194C28.197 42.4433 28.1871 42.4659 28.1722 42.4853C28.1572 42.5047 28.1378 42.5204 28.1154 42.5311C28.093 42.5417 28.0684 42.5471 28.0434 42.5467C27.1033 42.5336 26.4158 42.0498 25.7902 41.4045C25.3555 40.9557 24.9635 39.9489 24.8579 39.4717C24.7425 38.9549 24.7392 38.3561 24.8478 37.6754C24.9556 37.005 25.2735 36.3171 25.5363 35.6564C25.6913 35.2688 25.9261 34.9641 26.1597 34.6202C26.5304 34.0731 27.0134 33.6068 27.4616 33.1154C27.8413 32.6983 28.2894 32.3565 28.7174 31.9831C29.0229 31.7166 29.3524 31.4498 29.7059 31.1827C30.3139 30.7233 30.9021 30.241 31.4705 29.7358C31.8491 29.3984 32.4107 29.1604 32.7016 28.8907C33.1779 28.4473 33.6766 28.0291 34.1978 27.636C34.528 27.387 34.6999 27.0201 35.0223 26.734C35.922 25.9391 36.4555 24.8351 36.6881 23.6995C36.7936 23.187 36.8176 22.6392 36.76 22.0561C36.6379 20.8178 36.3264 19.7109 35.8254 18.7355C35.4109 17.9252 34.974 17.6479 34.3977 17.1139C33.9046 16.6564 33.3351 16.26 32.7802 16.0558C32.2268 15.852 31.5154 15.6347 30.646 15.4039C29.8553 15.1943 29.1259 15.0545 28.4579 14.9846C27.5174 14.8849 26.5742 14.8496 25.6284 14.8787C24.9298 14.8998 24.2573 14.9911 23.611 15.1528C22.5043 15.4301 21.4364 15.8138 20.4075 16.3037C19.7077 16.6367 19.0596 17.1499 18.3721 17.5845C17.8476 17.9154 17.4713 18.4002 17.013 18.813C16.3862 19.3786 15.9279 20.0371 15.3854 20.6628C15.0754 21.0198 14.9103 21.4402 14.6463 21.8355C14.3947 22.2126 14.2127 22.5071 14.1004 22.7189C13.8128 23.2583 13.4994 23.7443 13.2871 24.3165C12.912 25.3331 12.4312 26.3955 12.1583 27.3597C11.8041 28.6104 11.5558 29.8825 11.4135 31.1761C11.3701 31.5714 11.2952 32.1705 11.1889 32.9735C10.7733 36.126 11.1294 39.4411 11.7045 42.5663C11.7764 42.9543 11.9138 43.5007 12.1167 44.2053C12.2515 44.6712 12.4439 45.2005 12.6941 45.793C13.0748 46.6983 13.3613 47.6832 13.8802 48.5208C14.343 49.2684 14.7987 50.0204 15.2472 50.7767C15.3543 50.9565 15.5385 51.1862 15.7999 51.4658C16.2391 51.9364 16.5457 52.4955 17.0692 52.9377C17.6611 53.4367 18.1082 53.9904 18.7417 54.437C18.9371 54.5746 19.3206 54.8348 19.8919 55.2177C20.9826 55.9493 22.2979 56.3654 23.6369 56.7803C23.9881 56.8888 24.3464 56.9568 24.7118 56.9845C26.0246 57.0821 27.0523 57.0919 27.7952 57.014C29.2543 56.86 30.6674 56.3981 32.058 55.9613C32.5889 55.7946 33.0903 55.5912 33.562 55.3509C34.3798 54.9345 34.9343 54.6117 35.2256 54.3824C35.4873 54.1771 35.7333 53.998 35.9445 53.7283C36.1811 53.4255 36.4368 53.1386 36.7117 52.8678C36.9236 52.6589 37.0936 52.4522 37.2216 52.2476C37.6118 51.6237 37.9985 50.9995 38.3819 50.3749C38.4411 50.2773 38.51 50.2184 38.5886 50.198Z"/>
</mask>
<path d="M57.2168 15.4388C57.8593 15.7195 58.5288 15.951 59.041 16.284C61.3796 17.8062 62.1547 19.6822 62.1142 22.3477C62.106 22.9155 62.0558 23.409 61.9637 23.8283C61.7806 24.6604 61.4189 25.7338 60.8371 26.4054C60.6746 26.5939 60.542 26.7675 60.4394 26.9262C60.0238 27.5694 59.4386 27.9243 58.9129 28.4047C58.5812 28.7076 58.2607 28.942 57.9514 29.108C57.1749 29.5244 56.4009 29.9451 55.6296 30.3703C55.2897 30.5573 54.9246 30.7186 54.5345 30.854C53.5437 31.1976 52.5665 31.5721 51.6027 31.9776C51.3309 32.0919 50.9258 32.2131 50.3874 32.3412C49.1361 32.6383 47.9128 33.1165 46.7244 33.5926C46.2234 33.7925 45.6888 33.8907 45.2395 34.143C44.7609 34.4116 44.2761 34.721 43.7848 35.0711C43.2666 35.4402 42.9839 35.9156 42.9368 36.4972C42.8918 37.053 43.1457 37.4931 43.7332 37.5772C44.4375 37.6776 45.0373 37.4276 45.7101 37.2354C46.0037 37.1517 46.3084 37.0439 46.6244 36.9122C47.4205 36.5809 48.2206 36.2599 49.0249 35.9491C49.6494 35.7074 50.1964 35.5487 50.6659 35.473C51.4709 35.3427 52.3785 35.2826 53.3887 35.2928C54.9583 35.3088 56.3549 35.545 57.5785 36.0015C57.9275 36.1318 58.5494 36.4226 59.4442 36.874C60.3507 37.3315 61.3223 38.0402 61.9963 38.7816C62.5152 39.3527 63.051 39.8725 63.415 40.5353C63.9436 41.4998 64.3345 42.4822 64.5877 43.4825C64.8011 44.3233 64.8 45.1029 64.8 46.1086C64.8 46.9079 64.7502 47.5613 64.6506 48.0687C64.3825 49.4387 63.8347 50.816 63.0072 52.2006C62.8634 52.4409 62.659 52.7029 62.3939 52.9869C61.8694 53.5492 61.4773 54.2109 60.7753 54.6423C60.3518 54.9032 60.0137 55.28 59.5903 55.5126C58.5771 56.0702 57.8024 56.4302 57.2662 56.5925C56.5103 56.8207 55.7779 57.1614 55.0096 57.275C50.1661 57.9913 44.9261 57.3569 39.9354 56.9594C38.3921 56.836 36.906 56.8284 35.3851 56.8284C35.0002 56.8291 34.5947 56.8659 34.1686 56.9386C31.9895 57.3106 29.7942 57.4999 27.5829 57.5065C25.643 57.513 24.1154 57.5021 22.3743 57.1953C22.083 57.1436 21.7981 57.0686 21.5195 56.9703C20.1536 56.4899 18.7732 56.0083 17.5409 55.304C16.8834 54.9284 16.2409 54.5298 15.6134 54.1083C15.1248 53.7796 14.7485 53.3068 14.261 52.941C13.6286 52.4671 13.1838 51.9025 12.6682 51.3369C11.9729 50.5736 11.4057 49.7285 10.8059 48.8942C10.6463 48.6736 10.4898 48.401 10.3363 48.0763C10.0533 47.479 9.6781 46.9494 9.42424 46.3532C9.23441 45.9066 9.00189 45.4797 8.86261 45.021C8.68363 44.4299 8.49156 43.8432 8.28638 43.2608C8.08868 42.6966 7.94004 42.1801 7.84044 41.7113C7.54165 40.3005 7.35894 39.245 7.29229 38.5446C7.19045 37.4804 7.17285 36.1412 7.23949 34.5273C7.30127 33.0303 7.58771 31.5791 7.89885 30.1158C7.98721 29.6987 8.1265 29.2284 8.3167 28.705C8.65256 27.779 8.88507 26.8039 9.3018 25.9391C9.55491 25.415 9.81476 24.8941 10.0813 24.3765C10.3831 23.7912 10.7321 23.2147 11.1282 22.6469C11.618 21.9458 12.0149 21.3969 12.3189 21.0002C12.5357 20.7185 12.8727 20.4542 13.1265 20.1485C13.632 19.5413 14.2565 19.1264 14.7946 18.5935C15.081 18.3096 15.3202 18.0519 15.6763 17.8346C16.3514 17.4218 17.0804 16.9108 17.6858 16.5756C18.8596 15.927 20.102 15.5175 21.3499 15.0305C21.9677 14.788 22.8304 14.6832 23.6223 14.6188C24.8489 14.5205 26.1485 14.313 27.383 14.4397C28.5579 14.5598 29.6418 14.6057 30.7685 14.7815C31.5379 14.9005 32.1366 15.2226 32.9858 15.1779C33.6028 15.1458 33.9151 15.1298 33.9226 15.1298C36.2197 15.1397 38.5426 15.1877 40.8329 14.9999C42.8465 14.8346 44.8617 14.6927 46.8783 14.574C48.2622 14.4932 49.0099 14.4506 49.1215 14.4463C51.0767 14.3691 53.0237 14.4859 54.9624 14.7968C55.7929 14.93 56.5443 15.144 57.2168 15.4388ZM38.5886 50.198C38.6042 50.194 38.6204 50.1932 38.6363 50.1958C38.6522 50.1983 38.6673 50.2042 38.6807 50.2128C38.6941 50.2215 38.7054 50.2328 38.7139 50.2461C38.7224 50.2594 38.728 50.2742 38.7302 50.2897C38.7901 50.6945 38.7792 51.1 38.6976 51.5062C38.5021 52.4889 38.6538 53.3024 38.747 54.2273C38.7976 54.7373 39.1738 55.138 39.6041 55.363C41.1059 56.1481 42.811 56.4604 44.5082 56.8011C45.1732 56.935 45.7932 57.0184 46.3683 57.0511C48.0308 57.145 49.7875 57.1953 51.423 56.8098C52.0116 56.6711 52.6406 56.5663 53.1798 56.409C53.8126 56.2249 54.4337 56.0098 55.0433 55.7637C55.7049 55.4951 56.3126 55.0583 56.9416 54.6805C58.0896 53.9915 58.941 52.846 59.6487 51.7584C60.1991 50.9132 60.4866 49.925 60.7787 48.9674C60.9524 48.3945 61.0632 47.8467 61.1112 47.324C61.2227 46.1068 61.186 44.8933 61.0011 43.6834C60.8843 42.9157 60.5495 42.099 60.3316 41.2997C60.0699 40.3376 59.5375 39.6355 58.9961 38.8187C58.8156 38.5457 58.616 38.3051 58.3974 38.0969C57.7885 37.5182 57.3359 37.0203 56.5069 36.6359C55.5342 36.1838 54.7232 35.8628 53.6594 35.7765C52.6425 35.6943 51.6465 35.7762 50.6716 36.0222C50.3383 36.1059 49.6299 36.3418 48.5463 36.7298C47.1176 37.2398 45.7517 37.943 44.2813 38.1024C42.702 38.2738 42.0303 36.9668 42.5897 35.663C42.7896 35.1978 43.2367 34.7774 43.5714 34.3395C43.6912 34.1816 43.8335 34.0516 43.9983 33.9497C44.4798 33.652 44.9571 33.3477 45.4304 33.0368C46.1706 32.5509 46.9951 32.2266 47.7881 31.8182C48.2622 31.5736 48.6849 31.3665 49.0563 31.1969C50.4304 30.5708 51.7847 29.9055 53.1191 29.2008C53.8212 28.8295 54.4592 28.3403 55.1421 27.8959C55.7487 27.5017 56.2216 26.9426 56.79 26.4829C56.9779 26.3315 57.1296 26.1662 57.2449 25.9871C57.6096 25.4201 57.8837 24.9545 58.0671 24.5905C58.6198 23.4953 58.6827 22.6763 58.6052 21.4763C58.573 20.9834 58.4853 20.5401 58.3423 20.1463C58.0563 19.3579 57.6545 18.6241 57.1371 17.9449C56.836 17.5485 56.3317 17.2832 55.9441 16.9599C54.8703 16.0678 53.2719 15.643 51.9296 15.3078C51.2968 15.1498 50.654 15.0505 50.001 15.0097C47.4182 14.8474 44.8605 15.0505 42.328 15.619C41.4878 15.8083 40.679 16.0813 39.9017 16.438C39.2592 16.7339 38.6156 17.2886 37.945 17.5769C37.6485 17.7043 37.4639 17.9049 37.3912 18.1786C37.3817 18.2147 37.3845 18.253 37.3991 18.2878C37.4822 18.4829 37.5781 18.6481 37.6866 18.7835C38.2584 19.4998 38.9391 20.392 39.0683 21.1814C39.2974 22.5802 39.376 24.0031 39.0244 25.3069C38.9166 25.7087 38.8256 25.9784 38.7515 26.116C38.2715 27.0136 37.76 27.8941 37.2171 28.7574C37.0958 28.9504 36.9172 29.172 36.6813 29.4224C36.2769 29.8505 35.986 30.4412 35.5098 30.7874C34.9425 31.2012 34.5438 31.7396 34.0012 32.1523C33.5953 32.4595 33.2127 32.7922 32.8532 33.1504C32.5792 33.4223 32.2748 33.6068 31.9614 33.8176C31.4761 34.1419 31.0628 34.5896 30.5708 34.9477C30.248 35.1821 30.0002 35.3812 29.8272 35.545C29.2588 36.0812 28.6534 36.5966 28.2119 37.243C27.8412 37.7846 27.3706 38.3634 27.2515 38.9792C27.1325 39.5951 27.1055 40.7428 27.4852 41.3302C27.7222 41.696 28.0547 41.9111 28.1962 42.3479C28.2037 42.371 28.2054 42.3956 28.2012 42.4194C28.197 42.4433 28.1871 42.4659 28.1722 42.4853C28.1572 42.5047 28.1378 42.5204 28.1154 42.5311C28.093 42.5417 28.0684 42.5471 28.0434 42.5467C27.1033 42.5336 26.4158 42.0498 25.7902 41.4045C25.3555 40.9557 24.9635 39.9489 24.8579 39.4717C24.7425 38.9549 24.7392 38.3561 24.8478 37.6754C24.9556 37.005 25.2735 36.3171 25.5363 35.6564C25.6913 35.2688 25.9261 34.9641 26.1597 34.6202C26.5304 34.0731 27.0134 33.6068 27.4616 33.1154C27.8413 32.6983 28.2894 32.3565 28.7174 31.9831C29.0229 31.7166 29.3524 31.4498 29.7059 31.1827C30.3139 30.7233 30.9021 30.241 31.4705 29.7358C31.8491 29.3984 32.4107 29.1604 32.7016 28.8907C33.1779 28.4473 33.6766 28.0291 34.1978 27.636C34.528 27.387 34.6999 27.0201 35.0223 26.734C35.922 25.9391 36.4555 24.8351 36.6881 23.6995C36.7936 23.187 36.8176 22.6392 36.76 22.0561C36.6379 20.8178 36.3264 19.7109 35.8254 18.7355C35.4109 17.9252 34.974 17.6479 34.3977 17.1139C33.9046 16.6564 33.3351 16.26 32.7802 16.0558C32.2268 15.852 31.5154 15.6347 30.646 15.4039C29.8553 15.1943 29.1259 15.0545 28.4579 14.9846C27.5174 14.8849 26.5742 14.8496 25.6284 14.8787C24.9298 14.8998 24.2573 14.9911 23.611 15.1528C22.5043 15.4301 21.4364 15.8138 20.4075 16.3037C19.7077 16.6367 19.0596 17.1499 18.3721 17.5845C17.8476 17.9154 17.4713 18.4002 17.013 18.813C16.3862 19.3786 15.9279 20.0371 15.3854 20.6628C15.0754 21.0198 14.9103 21.4402 14.6463 21.8355C14.3947 22.2126 14.2127 22.5071 14.1004 22.7189C13.8128 23.2583 13.4994 23.7443 13.2871 24.3165C12.912 25.3331 12.4312 26.3955 12.1583 27.3597C11.8041 28.6104 11.5558 29.8825 11.4135 31.1761C11.3701 31.5714 11.2952 32.1705 11.1889 32.9735C10.7733 36.126 11.1294 39.4411 11.7045 42.5663C11.7764 42.9543 11.9138 43.5007 12.1167 44.2053C12.2515 44.6712 12.4439 45.2005 12.6941 45.793C13.0748 46.6983 13.3613 47.6832 13.8802 48.5208C14.343 49.2684 14.7987 50.0204 15.2472 50.7767C15.3543 50.9565 15.5385 51.1862 15.7999 51.4658C16.2391 51.9364 16.5457 52.4955 17.0692 52.9377C17.6611 53.4367 18.1082 53.9904 18.7417 54.437C18.9371 54.5746 19.3206 54.8348 19.8919 55.2177C20.9826 55.9493 22.2979 56.3654 23.6369 56.7803C23.9881 56.8888 24.3464 56.9568 24.7118 56.9845C26.0246 57.0821 27.0523 57.0919 27.7952 57.014C29.2543 56.86 30.6674 56.3981 32.058 55.9613C32.5889 55.7946 33.0903 55.5912 33.562 55.3509C34.3798 54.9345 34.9343 54.6117 35.2256 54.3824C35.4873 54.1771 35.7333 53.998 35.9445 53.7283C36.1811 53.4255 36.4368 53.1386 36.7117 52.8678C36.9236 52.6589 37.0936 52.4522 37.2216 52.2476C37.6118 51.6237 37.9985 50.9995 38.3819 50.3749C38.4411 50.2773 38.51 50.2184 38.5886 50.198Z" fill="#292222"/>
<path d="M57.2168 15.4388C57.8593 15.7195 58.5288 15.951 59.041 16.284C61.3796 17.8062 62.1547 19.6822 62.1142 22.3477C62.106 22.9155 62.0558 23.409 61.9637 23.8283C61.7806 24.6604 61.4189 25.7338 60.8371 26.4054C60.6746 26.5939 60.542 26.7675 60.4394 26.9262C60.0238 27.5694 59.4386 27.9243 58.9129 28.4047C58.5812 28.7076 58.2607 28.942 57.9514 29.108C57.1749 29.5244 56.4009 29.9451 55.6296 30.3703C55.2897 30.5573 54.9246 30.7186 54.5345 30.854C53.5437 31.1976 52.5665 31.5721 51.6027 31.9776C51.3309 32.0919 50.9258 32.2131 50.3874 32.3412C49.1361 32.6383 47.9128 33.1165 46.7244 33.5926C46.2234 33.7925 45.6888 33.8907 45.2395 34.143C44.7609 34.4116 44.2761 34.721 43.7848 35.0711C43.2666 35.4402 42.9839 35.9156 42.9368 36.4972C42.8918 37.053 43.1457 37.4931 43.7332 37.5772C44.4375 37.6776 45.0373 37.4276 45.7101 37.2354C46.0037 37.1517 46.3084 37.0439 46.6244 36.9122C47.4205 36.5809 48.2206 36.2599 49.0249 35.9491C49.6494 35.7074 50.1964 35.5487 50.6659 35.473C51.4709 35.3427 52.3785 35.2826 53.3887 35.2928C54.9583 35.3088 56.3549 35.545 57.5785 36.0015C57.9275 36.1318 58.5494 36.4226 59.4442 36.874C60.3507 37.3315 61.3223 38.0402 61.9963 38.7816C62.5152 39.3527 63.051 39.8725 63.415 40.5353C63.9436 41.4998 64.3345 42.4822 64.5877 43.4825C64.8011 44.3233 64.8 45.1029 64.8 46.1086C64.8 46.9079 64.7502 47.5613 64.6506 48.0687C64.3825 49.4387 63.8347 50.816 63.0072 52.2006C62.8634 52.4409 62.659 52.7029 62.3939 52.9869C61.8694 53.5492 61.4773 54.2109 60.7753 54.6423C60.3518 54.9032 60.0137 55.28 59.5903 55.5126C58.5771 56.0702 57.8024 56.4302 57.2662 56.5925C56.5103 56.8207 55.7779 57.1614 55.0096 57.275C50.1661 57.9913 44.9261 57.3569 39.9354 56.9594C38.3921 56.836 36.906 56.8284 35.3851 56.8284C35.0002 56.8291 34.5947 56.8659 34.1686 56.9386C31.9895 57.3106 29.7942 57.4999 27.5829 57.5065C25.643 57.513 24.1154 57.5021 22.3743 57.1953C22.083 57.1436 21.7981 57.0686 21.5195 56.9703C20.1536 56.4899 18.7732 56.0083 17.5409 55.304C16.8834 54.9284 16.2409 54.5298 15.6134 54.1083C15.1248 53.7796 14.7485 53.3068 14.261 52.941C13.6286 52.4671 13.1838 51.9025 12.6682 51.3369C11.9729 50.5736 11.4057 49.7285 10.8059 48.8942C10.6463 48.6736 10.4898 48.401 10.3363 48.0763C10.0533 47.479 9.6781 46.9494 9.42424 46.3532C9.23441 45.9066 9.00189 45.4797 8.86261 45.021C8.68363 44.4299 8.49156 43.8432 8.28638 43.2608C8.08868 42.6966 7.94004 42.1801 7.84044 41.7113C7.54165 40.3005 7.35894 39.245 7.29229 38.5446C7.19045 37.4804 7.17285 36.1412 7.23949 34.5273C7.30127 33.0303 7.58771 31.5791 7.89885 30.1158C7.98721 29.6987 8.1265 29.2284 8.3167 28.705C8.65256 27.779 8.88507 26.8039 9.3018 25.9391C9.55491 25.415 9.81476 24.8941 10.0813 24.3765C10.3831 23.7912 10.7321 23.2147 11.1282 22.6469C11.618 21.9458 12.0149 21.3969 12.3189 21.0002C12.5357 20.7185 12.8727 20.4542 13.1265 20.1485C13.632 19.5413 14.2565 19.1264 14.7946 18.5935C15.081 18.3096 15.3202 18.0519 15.6763 17.8346C16.3514 17.4218 17.0804 16.9108 17.6858 16.5756C18.8596 15.927 20.102 15.5175 21.3499 15.0305C21.9677 14.788 22.8304 14.6832 23.6223 14.6188C24.8489 14.5205 26.1485 14.313 27.383 14.4397C28.5579 14.5598 29.6418 14.6057 30.7685 14.7815C31.5379 14.9005 32.1366 15.2226 32.9858 15.1779C33.6028 15.1458 33.9151 15.1298 33.9226 15.1298C36.2197 15.1397 38.5426 15.1877 40.8329 14.9999C42.8465 14.8346 44.8617 14.6927 46.8783 14.574C48.2622 14.4932 49.0099 14.4506 49.1215 14.4463C51.0767 14.3691 53.0237 14.4859 54.9624 14.7968C55.7929 14.93 56.5443 15.144 57.2168 15.4388ZM38.5886 50.198C38.6042 50.194 38.6204 50.1932 38.6363 50.1958C38.6522 50.1983 38.6673 50.2042 38.6807 50.2128C38.6941 50.2215 38.7054 50.2328 38.7139 50.2461C38.7224 50.2594 38.728 50.2742 38.7302 50.2897C38.7901 50.6945 38.7792 51.1 38.6976 51.5062C38.5021 52.4889 38.6538 53.3024 38.747 54.2273C38.7976 54.7373 39.1738 55.138 39.6041 55.363C41.1059 56.1481 42.811 56.4604 44.5082 56.8011C45.1732 56.935 45.7932 57.0184 46.3683 57.0511C48.0308 57.145 49.7875 57.1953 51.423 56.8098C52.0116 56.6711 52.6406 56.5663 53.1798 56.409C53.8126 56.2249 54.4337 56.0098 55.0433 55.7637C55.7049 55.4951 56.3126 55.0583 56.9416 54.6805C58.0896 53.9915 58.941 52.846 59.6487 51.7584C60.1991 50.9132 60.4866 49.925 60.7787 48.9674C60.9524 48.3945 61.0632 47.8467 61.1112 47.324C61.2227 46.1068 61.186 44.8933 61.0011 43.6834C60.8843 42.9157 60.5495 42.099 60.3316 41.2997C60.0699 40.3376 59.5375 39.6355 58.9961 38.8187C58.8156 38.5457 58.616 38.3051 58.3974 38.0969C57.7885 37.5182 57.3359 37.0203 56.5069 36.6359C55.5342 36.1838 54.7232 35.8628 53.6594 35.7765C52.6425 35.6943 51.6465 35.7762 50.6716 36.0222C50.3383 36.1059 49.6299 36.3418 48.5463 36.7298C47.1176 37.2398 45.7517 37.943 44.2813 38.1024C42.702 38.2738 42.0303 36.9668 42.5897 35.663C42.7896 35.1978 43.2367 34.7774 43.5714 34.3395C43.6912 34.1816 43.8335 34.0516 43.9983 33.9497C44.4798 33.652 44.9571 33.3477 45.4304 33.0368C46.1706 32.5509 46.9951 32.2266 47.7881 31.8182C48.2622 31.5736 48.6849 31.3665 49.0563 31.1969C50.4304 30.5708 51.7847 29.9055 53.1191 29.2008C53.8212 28.8295 54.4592 28.3403 55.1421 27.8959C55.7487 27.5017 56.2216 26.9426 56.79 26.4829C56.9779 26.3315 57.1296 26.1662 57.2449 25.9871C57.6096 25.4201 57.8837 24.9545 58.0671 24.5905C58.6198 23.4953 58.6827 22.6763 58.6052 21.4763C58.573 20.9834 58.4853 20.5401 58.3423 20.1463C58.0563 19.3579 57.6545 18.6241 57.1371 17.9449C56.836 17.5485 56.3317 17.2832 55.9441 16.9599C54.8703 16.0678 53.2719 15.643 51.9296 15.3078C51.2968 15.1498 50.654 15.0505 50.001 15.0097C47.4182 14.8474 44.8605 15.0505 42.328 15.619C41.4878 15.8083 40.679 16.0813 39.9017 16.438C39.2592 16.7339 38.6156 17.2886 37.945 17.5769C37.6485 17.7043 37.4639 17.9049 37.3912 18.1786C37.3817 18.2147 37.3845 18.253 37.3991 18.2878C37.4822 18.4829 37.5781 18.6481 37.6866 18.7835C38.2584 19.4998 38.9391 20.392 39.0683 21.1814C39.2974 22.5802 39.376 24.0031 39.0244 25.3069C38.9166 25.7087 38.8256 25.9784 38.7515 26.116C38.2715 27.0136 37.76 27.8941 37.2171 28.7574C37.0958 28.9504 36.9172 29.172 36.6813 29.4224C36.2769 29.8505 35.986 30.4412 35.5098 30.7874C34.9425 31.2012 34.5438 31.7396 34.0012 32.1523C33.5953 32.4595 33.2127 32.7922 32.8532 33.1504C32.5792 33.4223 32.2748 33.6068 31.9614 33.8176C31.4761 34.1419 31.0628 34.5896 30.5708 34.9477C30.248 35.1821 30.0002 35.3812 29.8272 35.545C29.2588 36.0812 28.6534 36.5966 28.2119 37.243C27.8412 37.7846 27.3706 38.3634 27.2515 38.9792C27.1325 39.5951 27.1055 40.7428 27.4852 41.3302C27.7222 41.696 28.0547 41.9111 28.1962 42.3479C28.2037 42.371 28.2054 42.3956 28.2012 42.4194C28.197 42.4433 28.1871 42.4659 28.1722 42.4853C28.1572 42.5047 28.1378 42.5204 28.1154 42.5311C28.093 42.5417 28.0684 42.5471 28.0434 42.5467C27.1033 42.5336 26.4158 42.0498 25.7902 41.4045C25.3555 40.9557 24.9635 39.9489 24.8579 39.4717C24.7425 38.9549 24.7392 38.3561 24.8478 37.6754C24.9556 37.005 25.2735 36.3171 25.5363 35.6564C25.6913 35.2688 25.9261 34.9641 26.1597 34.6202C26.5304 34.0731 27.0134 33.6068 27.4616 33.1154C27.8413 32.6983 28.2894 32.3565 28.7174 31.9831C29.0229 31.7166 29.3524 31.4498 29.7059 31.1827C30.3139 30.7233 30.9021 30.241 31.4705 29.7358C31.8491 29.3984 32.4107 29.1604 32.7016 28.8907C33.1779 28.4473 33.6766 28.0291 34.1978 27.636C34.528 27.387 34.6999 27.0201 35.0223 26.734C35.922 25.9391 36.4555 24.8351 36.6881 23.6995C36.7936 23.187 36.8176 22.6392 36.76 22.0561C36.6379 20.8178 36.3264 19.7109 35.8254 18.7355C35.4109 17.9252 34.974 17.6479 34.3977 17.1139C33.9046 16.6564 33.3351 16.26 32.7802 16.0558C32.2268 15.852 31.5154 15.6347 30.646 15.4039C29.8553 15.1943 29.1259 15.0545 28.4579 14.9846C27.5174 14.8849 26.5742 14.8496 25.6284 14.8787C24.9298 14.8998 24.2573 14.9911 23.611 15.1528C22.5043 15.4301 21.4364 15.8138 20.4075 16.3037C19.7077 16.6367 19.0596 17.1499 18.3721 17.5845C17.8476 17.9154 17.4713 18.4002 17.013 18.813C16.3862 19.3786 15.9279 20.0371 15.3854 20.6628C15.0754 21.0198 14.9103 21.4402 14.6463 21.8355C14.3947 22.2126 14.2127 22.5071 14.1004 22.7189C13.8128 23.2583 13.4994 23.7443 13.2871 24.3165C12.912 25.3331 12.4312 26.3955 12.1583 27.3597C11.8041 28.6104 11.5558 29.8825 11.4135 31.1761C11.3701 31.5714 11.2952 32.1705 11.1889 32.9735C10.7733 36.126 11.1294 39.4411 11.7045 42.5663C11.7764 42.9543 11.9138 43.5007 12.1167 44.2053C12.2515 44.6712 12.4439 45.2005 12.6941 45.793C13.0748 46.6983 13.3613 47.6832 13.8802 48.5208C14.343 49.2684 14.7987 50.0204 15.2472 50.7767C15.3543 50.9565 15.5385 51.1862 15.7999 51.4658C16.2391 51.9364 16.5457 52.4955 17.0692 52.9377C17.6611 53.4367 18.1082 53.9904 18.7417 54.437C18.9371 54.5746 19.3206 54.8348 19.8919 55.2177C20.9826 55.9493 22.2979 56.3654 23.6369 56.7803C23.9881 56.8888 24.3464 56.9568 24.7118 56.9845C26.0246 57.0821 27.0523 57.0919 27.7952 57.014C29.2543 56.86 30.6674 56.3981 32.058 55.9613C32.5889 55.7946 33.0903 55.5912 33.562 55.3509C34.3798 54.9345 34.9343 54.6117 35.2256 54.3824C35.4873 54.1771 35.7333 53.998 35.9445 53.7283C36.1811 53.4255 36.4368 53.1386 36.7117 52.8678C36.9236 52.6589 37.0936 52.4522 37.2216 52.2476C37.6118 51.6237 37.9985 50.9995 38.3819 50.3749C38.4411 50.2773 38.51 50.2184 38.5886 50.198Z" stroke="#292222" stroke-width="2" mask="url(#path-1-outside-1_40_2)"/>
</svg>
